<svg xmlns="http://www.w3.org/2000/svg" width="1000" height="1000" viewBox="0 0 1000 1000" fill="none"><defs><radialGradient id="rg"><stop stop-color="#C8A04B" stop-opacity=".35"/><stop offset="1" stop-color="#C8A04B" stop-opacity="0"/></radialGradient></defs><rect width="1000" height="1000" rx="48" fill="#0B0B0B"/><circle cx="500" cy="500" r="390" fill="url(#rg)"/><g fill="none" stroke="#C8A04B"><circle cx="500" cy="500" r="320" opacity=".2"/><circle cx="500" cy="500" r="250" opacity=".35"/><circle cx="500" cy="500" r="180" opacity=".55"/></g><g transform="translate(350 240)"><ellipse cx="150" cy="70" rx="150" ry="50" fill="#C8A04B"/><path d="M0 70v120c0 28 67 50 150 50s150-22 150-50V70" fill="#181818" stroke="#C8A04B" stroke-width="4"/><ellipse cx="150" cy="190" rx="150" ry="50" fill="#181818" stroke="#C8A04B" stroke-width="4"/><path d="M0 190v120c0 28 67 50 150 50s150-22 150-50V190" fill="#181818" stroke="#C8A04B" stroke-width="4"/><ellipse cx="150" cy="310" rx="150" ry="50" fill="#181818" stroke="#C8A04B" stroke-width="4"/><path d="M0 310v120c0 28 67 50 150 50s150-22 150-50V310" fill="#181818" stroke="#C8A04B" stroke-width="4"/><ellipse cx="150" cy="430" rx="150" ry="50" fill="#C8A04B"/></g></svg>